# Blender v2.81 (sub 16) OBJ File: ''
# www.blender.org
mtllib Arbre.mtl
o Cylinder
v 2.466367 -0.253985 0.015674
v 3.227034 0.022686 0.019167
v 3.227034 0.026172 0.028745
v 2.466368 -0.186951 0.199847
v 3.227034 0.034999 0.033842
v 2.403041 -0.023412 0.292234
v 3.227034 0.045037 0.032072
v 2.466367 0.175799 0.263809
v 3.227034 0.051589 0.024263
v 2.466367 0.301781 0.113670
v 3.227034 0.051589 0.014070
v 2.403041 0.295585 -0.087932
v 3.227034 0.045037 0.006262
v 2.466367 0.175799 -0.232462
v 3.227034 0.034999 0.004492
v 2.466367 -0.017216 -0.266496
v 3.227034 0.026172 0.009589
v 2.403041 -0.193147 -0.174109
v -0.809443 -0.939428 -0.005440
v -0.809443 -0.705472 0.637348
v -1.003520 -0.113076 0.979368
v -1.003520 0.560572 0.860586
v -0.809443 1.000265 0.336580
v -0.872769 0.994068 -0.353069
v -1.003520 0.560572 -0.871465
v -1.003520 -0.113076 -0.990247
v -1.066847 -0.711668 -0.653837
v -1.054853 -0.150182 -1.162461
v -0.453387 -0.094124 -0.862932
v -0.516713 -0.618026 -0.569643
v -1.118179 -0.851516 -0.766733
v -0.453387 -0.816288 -0.002290
v -1.054853 -1.119851 -0.006855
v -1.054853 0.640299 -1.023078
v -0.453387 0.494589 -0.759126
v -1.118179 1.150053 -0.413802
v -0.516713 0.872648 -0.306797
v -1.054853 1.156250 0.394483
v -0.453387 0.878845 0.296607
v -1.054853 0.640300 1.009368
v -0.453387 0.494589 0.754545
v -1.118179 -0.156378 1.143143
v -0.453387 -0.094124 0.858351
v -1.054853 -0.845319 0.747414
v -0.453387 -0.611830 0.559453
v 1.692862 -0.047718 -0.470645
v 2.516458 0.010069 -0.162981
v 2.453131 -0.103203 -0.106769
v 1.629535 -0.343475 -0.309076
v 2.516458 -0.139295 0.015024
v 1.692862 -0.451635 0.010725
v 1.692862 0.281558 -0.412585
v 2.516458 0.131831 -0.141511
v 1.629536 0.490282 -0.162062
v 2.453131 0.205110 -0.052405
v 1.692862 0.496478 0.177903
v 2.516458 0.211306 0.076845
v 1.692862 0.281558 0.434034
v 2.516458 0.131831 0.171559
v 1.629535 -0.053915 0.486486
v 2.516458 0.010069 0.193029
v 1.692862 -0.337279 0.324917
v 2.516458 -0.097007 0.131209
v 0.842699 -0.671042 0.005286
v 1.745409 -0.315061 0.010529
v 1.745409 -0.230669 0.242392
v 0.842699 -0.504165 0.463775
v 1.745409 -0.016983 0.365764
v 0.779372 -0.087815 0.702124
v 1.745409 0.226012 0.322917
v 0.842699 0.398883 0.623007
v 1.745409 0.384616 0.133901
v 0.842699 0.712509 0.249243
v 1.682083 0.378420 -0.118452
v 0.779373 0.706312 -0.244281
v 1.745409 0.226012 -0.301860
v 0.842699 0.398883 -0.612436
v 1.745409 -0.016983 -0.344706
v 0.842699 -0.081619 -0.697161
v 0.779373 -0.510362 -0.458813
v 1.682082 -0.236866 -0.226943
v 0.078844 -0.105654 -0.864248
v 0.894761 -0.046827 -0.545192
v 0.831434 -0.384325 -0.359524
v 0.015518 -0.631965 -0.569569
v 0.894761 -0.508971 0.005569
v 0.078844 -0.831178 0.000399
v 0.078845 0.485799 -0.759959
v 0.894761 0.329916 -0.478762
v 0.015518 0.865646 -0.305499
v 0.831434 0.569622 -0.191317
v 0.078845 0.871843 0.300687
v 0.894761 0.575818 0.196847
v 0.078844 0.485799 0.760756
v 0.894761 0.329917 0.489901
v 0.015518 -0.111850 0.859436
v 0.894761 -0.046827 0.556331
v 0.078845 -0.625769 0.564756
v 0.894761 -0.378129 0.365054
v -0.512941 -0.997131 -0.003388
v 0.136518 -0.681816 0.001149
v 0.136519 -0.509570 0.474390
v -0.512940 -0.752068 0.669916
v 0.136518 -0.073428 0.726197
v -0.576267 -0.137744 1.022565
v 0.136519 0.422534 0.638746
v -0.512940 0.574081 0.903752
v 0.136519 0.746250 0.252955
v -0.512940 1.034648 0.354870
v 0.073192 0.740054 -0.256267
v -0.576267 1.028452 -0.367254
v 0.136519 0.422534 -0.636448
v -0.512940 0.574081 -0.910528
v 0.136518 -0.073428 -0.723899
v -0.512941 -0.131548 -1.034949
v -0.576267 -0.758265 -0.682301
v 0.073192 -0.515766 -0.477702
v -1.314390 -0.264436 -0.018886
v -0.720161 -0.373037 -0.018886
v -0.720161 -0.282063 0.231064
v -1.314390 -0.198870 0.161257
v -0.720161 -0.051708 0.364060
v -1.314390 -0.032850 0.257109
v -0.720161 0.210242 0.317871
v -1.314390 0.155942 0.223820
v -0.720161 0.381218 0.114110
v -1.314390 0.279167 0.076966
v -0.720161 0.381218 -0.151881
v -1.314390 0.279166 -0.114738
v -0.720161 0.210242 -0.355642
v -1.314390 0.155942 -0.261591
v -0.720161 -0.051708 -0.401831
v -1.314390 -0.032850 -0.294880
v -0.720161 -0.282063 -0.268836
v -1.314390 -0.198870 -0.199028
v -1.895607 -0.373037 -0.018886
v -1.895607 -0.282063 0.231064
v -1.895607 -0.051708 0.364060
v -1.895607 0.210242 0.317871
v -1.895607 0.381218 0.114110
v -1.895607 0.381218 -0.151881
v -1.895607 0.210242 -0.355642
v -1.895607 -0.051708 -0.401831
v -1.895607 -0.282063 -0.268836
vn 0.3221 -0.8896 0.3238
vn 0.3022 -0.3827 0.8730
vn 0.2971 0.0477 0.9536
vn 0.3112 0.7280 0.6109
vn 0.2965 0.9479 -0.1164
vn 0.3015 0.7917 -0.5313
vn 0.3210 0.1645 -0.9327
vn 1.0000 -0.0000 0.0000
vn 0.3169 -0.8686 -0.3809
vn 0.3166 -0.5253 -0.7898
vn -0.9991 0.0024 0.0415
vn 0.4310 -0.4757 -0.7667
vn 0.4304 -0.8379 -0.3356
vn 0.4285 0.1569 -0.8898
vn 0.4230 0.7193 -0.5511
vn 0.4187 0.9070 -0.0455
vn 0.4163 0.6965 0.5844
vn 0.3960 0.1376 0.9079
vn 0.4025 -0.4408 0.8023
vn 0.4266 -0.8499 0.3093
vn 0.3370 -0.5217 -0.7838
vn 0.3367 -0.8623 -0.3783
vn 0.3351 0.1636 -0.9279
vn 0.3288 0.7832 -0.5277
vn 0.3256 0.9388 -0.1127
vn 0.3254 0.7244 0.6078
vn 0.3122 0.1093 0.9437
vn 0.3173 -0.4317 0.8444
vn 0.3342 -0.8857 0.3224
vn 0.3458 -0.8817 0.3209
vn 0.3304 -0.4447 0.8325
vn 0.3260 0.1283 0.9366
vn 0.3390 0.7207 0.6047
vn 0.3409 0.9372 -0.0735
vn 0.3441 0.7585 -0.5534
vn 0.3487 0.1627 -0.9230
vn 0.3490 -0.8661 -0.3579
vn 0.3500 -0.5024 -0.7906
vn 0.3507 -0.4939 -0.7957
vn 0.3496 -0.8696 -0.3486
vn 0.3491 0.1627 -0.9228
vn 0.3446 0.7487 -0.5664
vn 0.3408 0.9385 -0.0551
vn 0.3385 0.7208 0.6048
vn 0.3243 0.1375 0.9359
vn 0.3293 -0.4520 0.8290
vn 0.3461 -0.8816 0.3209
vn 0.4133 -0.8557 0.3114
vn 0.3910 -0.4412 0.8077
vn 0.3849 0.1357 0.9129
vn 0.4035 0.7009 0.5881
vn 0.4056 0.9126 -0.0509
vn 0.4096 0.7268 -0.5513
vn 0.4150 0.1580 -0.8960
vn 0.4168 -0.8429 -0.3404
vn 0.4174 -0.4812 -0.7708
vn -0.8628 0.4715 0.1824
vn -0.8567 0.2778 0.4346
vn -0.8889 -0.0795 0.4511
vn -0.8164 -0.5765 0.0338
vn -0.8240 -0.4586 0.3326
vn -0.8804 -0.3633 -0.3049
vn -0.7582 0.0485 -0.6502
vn -0.7661 0.1734 -0.6189
vn -0.9072 0.3954 -0.1439
vn -0.9255 0.3559 -0.1295
vn -0.8196 0.2028 -0.5359
vn -0.8093 -0.0082 -0.5873
vn -0.9081 -0.3207 -0.2691
vn -0.8870 -0.4170 0.1984
vn -0.8858 -0.4495 0.1156
vn -0.9144 -0.0703 0.3987
vn -0.9077 0.2901 0.3033
vn -0.9091 0.3477 0.2296
vn -0.9379 0.2733 0.2137
vn -0.9377 0.2586 0.2322
vn -0.9401 -0.0592 0.3356
vn -0.9255 -0.3590 0.1208
vn -0.9257 -0.3523 0.1379
vn -0.9360 -0.2697 -0.2263
vn -0.8581 -0.0235 -0.5129
vn -0.8659 0.1920 -0.4618
vn -0.9462 0.3041 -0.1107
vn -0.9247 0.3577 -0.1302
vn -0.8320 0.2339 -0.5031
vn -0.8205 -0.0494 -0.5695
vn -0.9104 -0.3170 -0.2660
vn -0.9038 -0.4144 0.1072
vn -0.9047 -0.3844 0.1839
vn -0.9170 -0.0692 0.3927
vn -0.9201 0.3218 0.2232
vn -0.9193 0.2765 0.2799
vn -0.9398 0.2401 0.2434
vn -0.9402 0.2801 0.1938
vn -0.9392 -0.0596 0.3381
vn -0.9309 -0.3297 0.1572
vn -0.9303 -0.3550 0.0922
vn -0.9348 -0.2720 -0.2282
vn -0.8656 -0.0432 -0.4989
vn -0.8730 0.2057 -0.4422
vn -0.9435 0.3114 -0.1133
vn -0.5673 0.7738 -0.2817
vn -0.6658 0.2673 -0.6966
vn -0.8844 -0.0418 -0.4648
vn -0.7239 -0.4627 -0.5116
vn -0.5359 -0.8427 0.0523
vn -0.7303 -0.5019 0.4635
vn -0.9539 -0.0521 0.2956
vn -0.7441 0.5587 0.3663
vn -0.9540 0.2122 0.2118
vn -0.1693 -0.9261 0.3371
vn -0.1693 -0.4928 0.8535
vn -0.1693 0.1711 0.9706
vn -0.1693 0.7550 0.6335
vn -0.1693 0.9856 -0.0000
vn -0.1693 0.7550 -0.6335
vn -0.1693 0.1711 -0.9706
vn -0.1693 -0.9261 -0.3371
vn -0.1693 -0.4928 -0.8535
vn -1.0000 -0.0000 0.0000
vn 0.1729 -0.4925 -0.8530
vn 0.1729 -0.9255 -0.3369
vn 0.1729 0.1710 -0.9700
vn 0.1729 0.7545 -0.6331
vn 0.1729 0.9849 -0.0000
vn 0.1729 0.7545 0.6331
vn 0.1729 0.1710 0.9700
vn 0.1729 -0.4925 0.8530
vn 0.1729 -0.9255 0.3369
usemtl Leaves
s 1
f 1//1 2//1 3//1 4//1
f 4//2 3//2 5//2 6//2
f 6//3 5//3 7//3 8//3
f 8//4 7//4 9//4 10//4
f 10//5 9//5 11//5 12//5
f 12//6 11//6 13//6 14//6
f 14//7 13//7 15//7 16//7
f 3//8 2//8 17//8 15//8 13//8 11//8 9//8 7//8 5//8
f 18//9 17//9 2//9 1//9
f 16//10 15//10 17//10 18//10
f 19//11 20//11 21//11 22//11 23//11 24//11 25//11 26//11 27//11
f 28//12 29//12 30//12 31//12
f 31//13 30//13 32//13 33//13
f 34//14 35//14 29//14 28//14
f 36//15 37//15 35//15 34//15
f 38//16 39//16 37//16 36//16
f 40//17 41//17 39//17 38//17
f 42//18 43//18 41//18 40//18
f 44//19 45//19 43//19 42//19
f 33//20 32//20 45//20 44//20
f 46//21 47//21 48//21 49//21
f 49//22 48//22 50//22 51//22
f 52//23 53//23 47//23 46//23
f 54//24 55//24 53//24 52//24
f 56//25 57//25 55//25 54//25
f 58//26 59//26 57//26 56//26
f 60//27 61//27 59//27 58//27
f 62//28 63//28 61//28 60//28
f 51//29 50//29 63//29 62//29
f 64//30 65//30 66//30 67//30
f 67//31 66//31 68//31 69//31
f 69//32 68//32 70//32 71//32
f 71//33 70//33 72//33 73//33
f 73//34 72//34 74//34 75//34
f 75//35 74//35 76//35 77//35
f 77//36 76//36 78//36 79//36
f 80//37 81//37 65//37 64//37
f 79//38 78//38 81//38 80//38
f 82//39 83//39 84//39 85//39
f 85//40 84//40 86//40 87//40
f 88//41 89//41 83//41 82//41
f 90//42 91//42 89//42 88//42
f 92//43 93//43 91//43 90//43
f 94//44 95//44 93//44 92//44
f 96//45 97//45 95//45 94//45
f 98//46 99//46 97//46 96//46
f 87//47 86//47 99//47 98//47
f 100//48 101//48 102//48 103//48
f 103//49 102//49 104//49 105//49
f 105//50 104//50 106//50 107//50
f 107//51 106//51 108//51 109//51
f 109//52 108//52 110//52 111//52
f 111//53 110//53 112//53 113//53
f 113//54 112//54 114//54 115//54
f 116//55 117//55 101//55 100//55
f 115//56 114//56 117//56 116//56
f 47//57 16//57 18//57 48//57
f 48//58 18//58 1//58 50//58
f 53//59 14//59 16//59 47//59
f 55//60 12//60 14//60 53//60
f 57//61 10//61 12//61 55//61
f 59//62 8//62 10//62 57//62
f 61//63 6//63 8//63 59//63
f 63//64 4//64 6//64 61//64
f 50//65 1//65 4//65 63//65
f 65//66 51//66 62//66 66//66
f 66//67 62//67 60//67 68//67
f 68//68 60//68 58//68 70//68
f 70//69 58//69 56//69 72//69
f 72//70 56//70 54//70 74//70
f 74//71 54//71 52//71 76//71
f 76//72 52//72 46//72 78//72
f 81//73 49//73 51//73 65//73
f 78//74 46//74 49//74 81//74
f 83//75 79//75 80//75 84//75
f 84//76 80//76 64//76 86//76
f 89//77 77//77 79//77 83//77
f 91//78 75//78 77//78 89//78
f 93//79 73//79 75//79 91//79
f 95//80 71//80 73//80 93//80
f 97//81 69//81 71//81 95//81
f 99//82 67//82 69//82 97//82
f 86//83 64//83 67//83 99//83
f 101//84 87//84 98//84 102//84
f 102//85 98//85 96//85 104//85
f 104//86 96//86 94//86 106//86
f 106//87 94//87 92//87 108//87
f 108//88 92//88 90//88 110//88
f 110//89 90//89 88//89 112//89
f 112//90 88//90 82//90 114//90
f 117//91 85//91 87//91 101//91
f 114//92 82//92 85//92 117//92
f 29//93 115//93 116//93 30//93
f 30//94 116//94 100//94 32//94
f 35//95 113//95 115//95 29//95
f 37//96 111//96 113//96 35//96
f 39//97 109//97 111//97 37//97
f 41//98 107//98 109//98 39//98
f 43//99 105//99 107//99 41//99
f 45//100 103//100 105//100 43//100
f 32//101 100//101 103//101 45//101
f 19//102 33//102 44//102 20//102
f 20//103 44//103 42//103 21//103
f 21//104 42//104 40//104 22//104
f 22//105 40//105 38//105 23//105
f 23//106 38//106 36//106 24//106
f 24//107 36//107 34//107 25//107
f 25//108 34//108 28//108 26//108
f 27//109 31//109 33//109 19//109
f 26//110 28//110 31//110 27//110
usemtl Bark
f 118//111 119//111 120//111 121//111
f 121//112 120//112 122//112 123//112
f 123//113 122//113 124//113 125//113
f 125//114 124//114 126//114 127//114
f 127//115 126//115 128//115 129//115
f 129//116 128//116 130//116 131//116
f 131//117 130//117 132//117 133//117
f 120//8 119//8 134//8 132//8 130//8 128//8 126//8 124//8 122//8
f 135//118 134//118 119//118 118//118
f 133//119 132//119 134//119 135//119
f 136//120 137//120 138//120 139//120 140//120 141//120 142//120 143//120 144//120
f 143//121 133//121 135//121 144//121
f 144//122 135//122 118//122 136//122
f 142//123 131//123 133//123 143//123
f 141//124 129//124 131//124 142//124
f 140//125 127//125 129//125 141//125
f 139//126 125//126 127//126 140//126
f 138//127 123//127 125//127 139//127
f 137//128 121//128 123//128 138//128
f 136//129 118//129 121//129 137//129
